<svg width="26" height="26" viewBox="0 0 26 26" fill="none" xmlns="http://www.w3.org/2000/svg">
<path d="M4.85 9.09375H7V11.2437C7 11.3 7.05625 11.3438 7.125 11.3438H8.625C8.69375 11.3438 8.75 11.3 8.75 11.2406V9.09375H10.9C10.9562 9.09375 11 9.0375 11 8.96875V7.46875C11 7.4 10.9563 7.34375 10.8969 7.34375H8.75V5.19375C8.75 5.1375 8.69375 5.09375 8.625 5.09375H7.125C7.05625 5.09375 7 5.1375 7 5.19375V7.34375H4.85C4.79375 7.34375 4.75 7.4 4.75 7.46875V8.96875C4.75 9.0375 4.79375 9.09375 4.85 9.09375ZM15.1 9.09375H21.15C21.2062 9.09375 21.25 9.0375 21.25 8.96875V7.46875C21.25 7.4 21.2063 7.34375 21.1469 7.34375H15.1C15.0438 7.34375 15 7.4 15 7.46875V8.96875C15 9.0375 15.0438 9.09375 15.1 9.09375ZM15.1 17.375H21.15C21.2062 17.375 21.25 17.3188 21.25 17.25V15.75C21.25 15.6812 21.2063 15.625 21.1469 15.625H15.1C15.0438 15.625 15 15.6812 15 15.75V17.25C15 17.3188 15.0438 17.375 15.1 17.375ZM15.1 20.625H21.15C21.2062 20.625 21.25 20.5688 21.25 20.5V19C21.25 18.9312 21.2063 18.875 21.1469 18.875H15.1C15.0438 18.875 15 18.9312 15 19V20.5C15 20.5688 15.0438 20.625 15.1 20.625ZM8.98438 18.0938L10.8969 15.7531C11.0312 15.5906 10.9187 15.3438 10.7125 15.3438H9.125C9.05313 15.3438 8.98438 15.375 8.94063 15.4344L7.87813 16.7344L6.81563 15.4344C6.79327 15.4068 6.76521 15.3845 6.73338 15.3688C6.70155 15.3532 6.66671 15.3446 6.63125 15.3438H5.04062C4.83437 15.3438 4.72187 15.5906 4.85625 15.7531L6.76875 18.0938L4.80937 20.4937C4.67188 20.6562 4.78437 20.9031 4.99062 20.9031H6.57812C6.65 20.9031 6.71875 20.8719 6.7625 20.8125L7.87187 19.4531L8.98125 20.8125C9.02812 20.8687 9.09687 20.9031 9.16562 20.9031H10.7531C10.9594 20.9031 11.0719 20.6562 10.9375 20.4937L8.98438 18.0938ZM24.5 0.5H1.5C0.946875 0.5 0.5 0.946875 0.5 1.5V24.5C0.5 25.0531 0.946875 25.5 1.5 25.5H24.5C25.0531 25.5 25.5 25.0531 25.5 24.5V1.5C25.5 0.946875 25.0531 0.5 24.5 0.5ZM23.375 23.375H2.625V2.625H23.375V23.375Z" fill="#5FCAEA"/>
</svg>
