<svg width="30" height="30" viewBox="0 0 30 30" fill="none" xmlns="http://www.w3.org/2000/svg">
<circle cx="15" cy="15" r="15" fill="#E9F1F5"/>
<path d="M7.68407 11.8897H20.6986L18.2953 14.2929C18.0365 14.5517 18.0365 14.9769 18.2953 15.2357C18.4247 15.3651 18.5911 15.4391 18.776 15.4391C18.9608 15.4391 19.1272 15.3651 19.2566 15.2357L22.806 11.6863C23.0648 11.4275 23.0648 11.0023 22.806 10.7435L19.2381 7.19411C18.9793 6.9353 18.5541 6.9353 18.2953 7.19411C18.0365 7.45292 18.0365 7.87811 18.2953 8.13692L20.6986 10.5402H7.68407C7.31434 10.5402 7.01855 10.836 7.01855 11.2057C7.01855 11.5754 7.31434 11.8897 7.68407 11.8897Z" fill="#7492A1"/>
<path d="M22.3068 18.5634H9.29233L11.6956 16.1601C11.9544 15.9013 11.9544 15.4761 11.6956 15.2173C11.4368 14.9585 11.0116 14.9585 10.7528 15.2173L7.20335 18.7667C7.16638 18.8037 7.14789 18.8407 7.11092 18.8776C7.11092 18.8961 7.09243 18.8961 7.09243 18.9146C7.07395 18.9331 7.05546 18.9701 7.05546 18.9885C7.05546 19.007 7.03697 19.0255 7.03697 19.044C7.03697 19.0625 7.01849 19.081 7.01849 19.0995C7.01849 19.1364 7 19.1919 7 19.2289C7 19.2658 7 19.3213 7.01849 19.3583C7.01849 19.3768 7.03697 19.3953 7.03697 19.4137C7.05546 19.4507 7.05546 19.4692 7.05546 19.4877C7.07395 19.5062 7.07395 19.5431 7.09243 19.5616C7.09243 19.5801 7.11092 19.5801 7.11092 19.5986C7.12941 19.6356 7.16638 19.6726 7.20335 19.7095L10.7528 23.2589C10.8822 23.3883 11.0485 23.4623 11.2334 23.4623C11.4183 23.4623 11.5847 23.3883 11.7141 23.2589C11.9729 23.0001 11.9729 22.5749 11.7141 22.3161L9.31081 19.9129H22.3253C22.695 19.9129 22.9908 19.6171 22.9908 19.2474C22.9723 18.8776 22.6766 18.5634 22.3068 18.5634Z" fill="#7492A1"/>
</svg>
