<svg width="16" height="17" viewBox="0 0 16 17" fill="none" xmlns="http://www.w3.org/2000/svg">
<path d="M0.684069 4.88968H13.6986L11.2953 7.29293C11.0365 7.55174 11.0365 7.97693 11.2953 8.23574C11.4247 8.36514 11.5911 8.43909 11.776 8.43909C11.9608 8.43909 12.1272 8.36514 12.2566 8.23574L15.806 4.68633C16.0648 4.42752 16.0648 4.00233 15.806 3.74352L12.2381 0.194108C11.9793 -0.0647028 11.5541 -0.0647028 11.2953 0.194108C11.0365 0.452919 11.0365 0.878109 11.2953 1.13692L13.6986 3.54017H0.684069C0.314339 3.54017 0.0185547 3.83595 0.0185547 4.20568C0.0185547 4.57541 0.314339 4.88968 0.684069 4.88968Z" fill="#7492A1"/>
<path d="M15.3068 11.5634H2.29233L4.69557 9.16011C4.95438 8.9013 4.95438 8.47611 4.69557 8.2173C4.43676 7.95849 4.01157 7.95849 3.75276 8.2173L0.203352 11.7667C0.166379 11.8037 0.147892 11.8407 0.110919 11.8776C0.110919 11.8961 0.0924325 11.8961 0.0924325 11.9146C0.073946 11.9331 0.0554596 11.9701 0.0554596 11.9885C0.0554596 12.007 0.0369731 12.0255 0.0369731 12.044C0.0369731 12.0625 0.0184866 12.081 0.0184866 12.0995C0.0184866 12.1364 0 12.1919 0 12.2289C0 12.2658 7.0245e-08 12.3213 0.0184866 12.3583C0.0184866 12.3768 0.0369731 12.3953 0.0369731 12.4137C0.0554596 12.4507 0.0554596 12.4692 0.0554596 12.4877C0.0739461 12.5062 0.073946 12.5431 0.0924325 12.5616C0.0924325 12.5801 0.110919 12.5801 0.110919 12.5986C0.129406 12.6356 0.166379 12.6726 0.203352 12.7095L3.75276 16.2589C3.88217 16.3883 4.04855 16.4623 4.23341 16.4623C4.41828 16.4623 4.58465 16.3883 4.71406 16.2589C4.97287 16.0001 4.97287 15.5749 4.71406 15.3161L2.31081 12.9129H15.3253C15.695 12.9129 15.9908 12.6171 15.9908 12.2474C15.9723 11.8776 15.6766 11.5634 15.3068 11.5634Z" fill="#7492A1"/>
</svg>
