<svg width="28" height="25" viewBox="0 0 28 25" fill="none" xmlns="http://www.w3.org/2000/svg">
<g filter="url(#filter0_d)">
<path fill-rule="evenodd" clip-rule="evenodd" d="M22.5781 7.08036C22.8594 7.72768 23 8.40848 23 9.12277C23 9.90402 22.8301 10.6406 22.4903 11.3326C22.1504 12.0246 21.6758 12.6105 21.0665 13.0904C20.6212 13.481 19.4728 14.4799 17.6213 16.0871C15.887 17.5938 14.8265 18.5145 14.4398 18.8493C14.3109 18.9498 14.1644 19 14.0003 19C13.8363 19 13.6898 18.9498 13.5609 18.8493C12.9867 18.3583 11.4809 17.0469 9.04349 14.9152C7.88337 13.9107 7.2213 13.3415 7.05724 13.2076C7.01037 13.1629 6.95763 13.1183 6.89904 13.0737C6.30141 12.5937 5.83854 12.0106 5.51042 11.3242C5.18231 10.6378 5.01239 9.9096 5.00068 9.13951C4.98896 8.43638 5.12958 7.75558 5.42254 7.0971C5.69206 6.4721 6.07876 5.91965 6.58265 5.43973C7.56699 4.47991 8.74467 4 10.1157 4C10.8657 4 11.5776 4.15625 12.2514 4.46875C12.9252 4.78125 13.5082 5.2221 14.0003 5.79129C14.4925 5.2221 15.0755 4.78125 15.7493 4.46875C16.4231 4.15625 17.135 4 17.885 4C19.256 4 20.4337 4.47433 21.418 5.42299C21.9219 5.9029 22.3086 6.45535 22.5781 7.08036Z" fill="white"/>
</g>
<defs>
<filter id="filter0_d" x="0" y="0" width="28" height="25" filterUnits="userSpaceOnUse" color-interpolation-filters="sRGB">
<feFlood flood-opacity="0" result="BackgroundImageFix"/>
<feColorMatrix in="SourceAlpha" type="matrix" values="0 0 0 0 0 0 0 0 0 0 0 0 0 0 0 0 0 0 127 0"/>
<feOffset dy="1"/>
<feGaussianBlur stdDeviation="2.5"/>
<feColorMatrix type="matrix" values="0 0 0 0 0.125417 0 0 0 0 0.442632 0 0 0 0 0.5375 0 0 0 0.16 0"/>
<feBlend mode="normal" in2="BackgroundImageFix" result="effect1_dropShadow"/>
<feBlend mode="normal" in="SourceGraphic" in2="effect1_dropShadow" result="shape"/>
</filter>
</defs>
</svg>
