<svg width="43" height="43" viewBox="0 0 43 43" fill="none" xmlns="http://www.w3.org/2000/svg">
<circle cx="21.5" cy="21.5" r="19.5" fill="#E9F1F5" stroke="white" stroke-width="4"/>
<g filter="url(#filter0_d)">
<path fill-rule="evenodd" clip-rule="evenodd" d="M30.5781 18.0804C30.8594 18.7277 31 19.4085 31 20.1228C31 20.904 30.8301 21.6406 30.4903 22.3326C30.1504 23.0246 29.6758 23.6105 29.0665 24.0904C28.6212 24.481 27.4728 25.4799 25.6213 27.0871C23.887 28.5938 22.8265 29.5145 22.4398 29.8493C22.3109 29.9498 22.1644 30 22.0003 30C21.8363 30 21.6898 29.9498 21.5609 29.8493C20.9867 29.3583 19.4809 28.0469 17.0435 25.9152C15.8834 24.9107 15.2213 24.3415 15.0572 24.2076C15.0104 24.1629 14.9576 24.1183 14.899 24.0737C14.3014 23.5937 13.8385 23.0106 13.5104 22.3242C13.1823 21.6378 13.0124 20.9096 13.0007 20.1395C12.989 19.4364 13.1296 18.7556 13.4225 18.0971C13.6921 17.4721 14.0788 16.9196 14.5826 16.4397C15.567 15.4799 16.7447 15 18.1157 15C18.8657 15 19.5776 15.1562 20.2514 15.4688C20.9252 15.7813 21.5082 16.2221 22.0003 16.7913C22.4925 16.2221 23.0755 15.7813 23.7493 15.4688C24.4231 15.1562 25.135 15 25.885 15C27.256 15 28.4337 15.4743 29.418 16.423C29.9219 16.9029 30.3086 17.4554 30.5781 18.0804Z" fill="white"/>
</g>
<circle cx="21.5" cy="21.5" r="19.5" fill="#5FCAEA" stroke="white" stroke-width="4"/>
<g filter="url(#filter1_i)">
<path fill-rule="evenodd" clip-rule="evenodd" d="M30.5781 18.0804C30.8594 18.7277 31 19.4085 31 20.1228C31 20.904 30.8301 21.6406 30.4903 22.3326C30.1504 23.0246 29.6758 23.6105 29.0665 24.0904C28.6212 24.481 27.4728 25.4799 25.6213 27.0871C23.887 28.5938 22.8265 29.5145 22.4398 29.8493C22.3109 29.9498 22.1644 30 22.0003 30C21.8363 30 21.6898 29.9498 21.5609 29.8493C20.9867 29.3583 19.4809 28.0469 17.0435 25.9152C15.8834 24.9107 15.2213 24.3415 15.0572 24.2076C15.0104 24.1629 14.9576 24.1183 14.899 24.0737C14.3014 23.5937 13.8385 23.0106 13.5104 22.3242C13.1823 21.6378 13.0124 20.9096 13.0007 20.1395C12.989 19.4364 13.1296 18.7556 13.4225 18.0971C13.6921 17.4721 14.0788 16.9196 14.5826 16.4397C15.567 15.4799 16.7447 15 18.1157 15C18.8657 15 19.5776 15.1562 20.2514 15.4688C20.9252 15.7813 21.5082 16.2221 22.0003 16.7913C22.4925 16.2221 23.0755 15.7813 23.7493 15.4688C24.4231 15.1562 25.135 15 25.885 15C27.256 15 28.4337 15.4743 29.418 16.423C29.9219 16.9029 30.3086 17.4554 30.5781 18.0804Z" fill="#3A94AF"/>
</g>
<defs>
<filter id="filter0_d" x="8" y="11" width="28" height="25" filterUnits="userSpaceOnUse" color-interpolation-filters="sRGB">
<feFlood flood-opacity="0" result="BackgroundImageFix"/>
<feColorMatrix in="SourceAlpha" type="matrix" values="0 0 0 0 0 0 0 0 0 0 0 0 0 0 0 0 0 0 127 0"/>
<feOffset dy="1"/>
<feGaussianBlur stdDeviation="2.5"/>
<feColorMatrix type="matrix" values="0 0 0 0 0.125417 0 0 0 0 0.442632 0 0 0 0 0.5375 0 0 0 0.16 0"/>
<feBlend mode="normal" in2="BackgroundImageFix" result="effect1_dropShadow"/>
<feBlend mode="normal" in="SourceGraphic" in2="effect1_dropShadow" result="shape"/>
</filter>
<filter id="filter1_i" x="13" y="15" width="18" height="17" filterUnits="userSpaceOnUse" color-interpolation-filters="sRGB">
<feFlood flood-opacity="0" result="BackgroundImageFix"/>
<feBlend mode="normal" in="SourceGraphic" in2="BackgroundImageFix" result="shape"/>
<feColorMatrix in="SourceAlpha" type="matrix" values="0 0 0 0 0 0 0 0 0 0 0 0 0 0 0 0 0 0 127 0" result="hardAlpha"/>
<feOffset dy="2"/>
<feGaussianBlur stdDeviation="2"/>
<feComposite in2="hardAlpha" operator="arithmetic" k2="-1" k3="1"/>
<feColorMatrix type="matrix" values="0 0 0 0 0.214919 0 0 0 0 0.436516 0 0 0 0 0.502995 0 0 0 1 0"/>
<feBlend mode="normal" in2="shape" result="effect1_innerShadow"/>
</filter>
</defs>
</svg>
