<svg width="18" height="15" viewBox="0 0 18 15" fill="none" xmlns="http://www.w3.org/2000/svg">
<g filter="url(#filter0_i)">
<path fill-rule="evenodd" clip-rule="evenodd" d="M17.5781 3.08036C17.8594 3.72768 18 4.40848 18 5.12277C18 5.90402 17.8301 6.64062 17.4903 7.33259C17.1504 8.02456 16.6758 8.61049 16.0665 9.0904C15.6212 9.48103 14.4728 10.4799 12.6213 12.0871C10.887 13.5938 9.82648 14.5145 9.43977 14.8493C9.31087 14.9498 9.16439 15 9.00034 15C8.83628 15 8.6898 14.9498 8.5609 14.8493C7.9867 14.3583 6.48091 13.0469 4.04349 10.9152C2.88337 9.91071 2.2213 9.34152 2.05724 9.20759C2.01037 9.16295 1.95763 9.1183 1.89904 9.07366C1.30141 8.59375 0.838537 8.01061 0.510423 7.32422C0.182308 6.63783 0.0123944 5.9096 0.000676069 5.13951C-0.0110423 4.43638 0.129576 3.75558 0.422535 3.0971C0.692058 2.4721 1.07876 1.91965 1.58265 1.43973C2.56699 0.479906 3.74467 0 5.11572 0C5.86569 0 6.57757 0.156248 7.25138 0.46875C7.92519 0.781252 8.50817 1.2221 9.00034 1.79129C9.49251 1.2221 10.0755 0.781252 10.7493 0.46875C11.4231 0.156248 12.135 0 12.885 0C14.256 0 15.4337 0.474326 16.418 1.42299C16.9219 1.9029 17.3086 2.45535 17.5781 3.08036Z" fill="#3A94AF"/>
</g>
<defs>
<filter id="filter0_i" x="0" y="0" width="18" height="17" filterUnits="userSpaceOnUse" color-interpolation-filters="sRGB">
<feFlood flood-opacity="0" result="BackgroundImageFix"/>
<feBlend mode="normal" in="SourceGraphic" in2="BackgroundImageFix" result="shape"/>
<feColorMatrix in="SourceAlpha" type="matrix" values="0 0 0 0 0 0 0 0 0 0 0 0 0 0 0 0 0 0 127 0" result="hardAlpha"/>
<feOffset dy="2"/>
<feGaussianBlur stdDeviation="2"/>
<feComposite in2="hardAlpha" operator="arithmetic" k2="-1" k3="1"/>
<feColorMatrix type="matrix" values="0 0 0 0 0.214919 0 0 0 0 0.436516 0 0 0 0 0.502995 0 0 0 1 0"/>
<feBlend mode="normal" in2="shape" result="effect1_innerShadow"/>
</filter>
</defs>
</svg>
