<svg width="97" height="36" viewBox="0 0 97 36" fill="none" xmlns="http://www.w3.org/2000/svg">
<path d="M1 32V1H32" stroke="#D5DFE6"/>
<path d="M38.5859 29V9.57031H40.4258V18.1836H46.543V9.57031H48.3828V29H46.543V19.5312H40.4258V29H38.5859ZM54.793 27.4883C55.2148 27.6758 55.7383 27.7695 56.3633 27.7695C56.9883 27.7695 57.5117 27.6758 57.9336 27.4883C58.3555 27.293 58.6758 27.0039 58.8945 26.6211C59.1211 26.2383 59.2773 25.8125 59.3633 25.3438C59.457 24.875 59.5039 24.3125 59.5039 23.6562V14.8672C59.5039 14.2109 59.457 13.6523 59.3633 13.1914C59.2773 12.7227 59.1211 12.3008 58.8945 11.9258C58.6758 11.5508 58.3555 11.2734 57.9336 11.0938C57.5117 10.9062 56.9883 10.8125 56.3633 10.8125C55.7383 10.8125 55.2148 10.9062 54.793 11.0938C54.3711 11.2734 54.0469 11.5508 53.8203 11.9258C53.6016 12.3008 53.4453 12.7227 53.3516 13.1914C53.2656 13.6523 53.2227 14.2109 53.2227 14.8672V23.6562C53.2227 24.3125 53.2656 24.875 53.3516 25.3438C53.4453 25.8125 53.6016 26.2383 53.8203 26.6211C54.0469 27.0039 54.3711 27.293 54.793 27.4883ZM56.3633 29.2461C55.4258 29.2461 54.625 29.1055 53.9609 28.8242C53.3047 28.5352 52.7891 28.1172 52.4141 27.5703C52.0469 27.0156 51.7812 26.3906 51.6172 25.6953C51.4531 24.9922 51.3711 24.1797 51.3711 23.2578V15.1953C51.3711 14.2812 51.4531 13.4805 51.6172 12.793C51.7891 12.1055 52.0625 11.5 52.4375 10.9766C52.8203 10.4453 53.3398 10.043 53.9961 9.76953C54.6523 9.49609 55.4414 9.35938 56.3633 9.35938C57.2852 9.35938 58.0742 9.49609 58.7305 9.76953C59.3867 10.043 59.9023 10.4453 60.2773 10.9766C60.6602 11.5078 60.9336 12.1172 61.0977 12.8047C61.2695 13.4922 61.3555 14.2891 61.3555 15.1953V23.2812C61.3555 24.0078 61.3047 24.6641 61.2031 25.25C61.1094 25.8359 60.9414 26.3828 60.6992 26.8906C60.4648 27.3984 60.1602 27.8242 59.7852 28.168C59.4102 28.5039 58.9336 28.7695 58.3555 28.9648C57.7773 29.1523 57.1133 29.2461 56.3633 29.2461ZM69.1133 29.2461C68.3398 29.2461 67.6602 29.1562 67.0742 28.9766C66.4883 28.7969 66.0117 28.5508 65.6445 28.2383C65.2773 27.918 64.9805 27.5195 64.7539 27.043C64.5273 26.5664 64.3672 26.0625 64.2734 25.5312C64.1875 24.9922 64.1445 24.3789 64.1445 23.6914V9.57031H65.9141V23.75C65.9141 24.2344 65.9414 24.668 65.9961 25.0508C66.0508 25.4336 66.1484 25.8008 66.2891 26.1523C66.4297 26.4961 66.6172 26.7852 66.8516 27.0195C67.0859 27.2461 67.3945 27.4297 67.7773 27.5703C68.1602 27.7031 68.6055 27.7695 69.1133 27.7695C69.7227 27.7695 70.2383 27.6719 70.6602 27.4766C71.0898 27.2734 71.418 26.9844 71.6445 26.6094C71.8789 26.2266 72.0469 25.8047 72.1484 25.3438C72.25 24.8828 72.3008 24.3516 72.3008 23.75V9.57031H74.0586V23.6914C74.0586 24.3711 74.0117 24.9805 73.918 25.5195C73.8242 26.0586 73.6602 26.5664 73.4258 27.043C73.1914 27.5195 72.8867 27.918 72.5117 28.2383C72.1445 28.5508 71.6719 28.7969 71.0938 28.9766C70.5234 29.1562 69.8633 29.2461 69.1133 29.2461ZM81.3945 29.2344C79.8555 29.2344 78.6875 28.7734 77.8906 27.8516C77.1016 26.9219 76.6445 25.625 76.5195 23.9609L78.1484 23.4922C78.2031 24.0078 78.2695 24.4648 78.3477 24.8633C78.4336 25.2539 78.5547 25.6406 78.7109 26.0234C78.875 26.3984 79.0703 26.707 79.2969 26.9492C79.5312 27.1914 79.8242 27.3867 80.1758 27.5352C80.5352 27.6836 80.9453 27.7578 81.4062 27.7578C83.2344 27.7578 84.1484 26.8203 84.1484 24.9453C84.1484 24.5312 84.0938 24.1445 83.9844 23.7852C83.8828 23.418 83.7148 23.0625 83.4805 22.7188C83.2539 22.3672 83.0117 22.0508 82.7539 21.7695C82.5039 21.4883 82.1758 21.1484 81.7695 20.75L78.3242 17.4453C77.1523 16.3203 76.5664 15.0156 76.5664 13.5312C76.5664 12.2109 76.957 11.1875 77.7383 10.4609C78.5273 9.73438 79.5938 9.36719 80.9375 9.35938C80.9688 9.35938 80.9961 9.35938 81.0195 9.35938C82.4336 9.35938 83.5156 9.74219 84.2656 10.5078C85.0312 11.2891 85.4766 12.5508 85.6016 14.293L84.0547 14.6914C83.9453 13.3789 83.6641 12.3945 83.2109 11.7383C82.7734 11.1133 82.0703 10.8008 81.1016 10.8008C81.0547 10.8008 81.0078 10.8008 80.9609 10.8008C80.1094 10.8242 79.4375 11.0469 78.9453 11.4688C78.4609 11.8906 78.2188 12.5273 78.2188 13.3789C78.2188 13.9102 78.3203 14.3945 78.5234 14.832C78.7344 15.2617 79.0898 15.7188 79.5898 16.2031L83.0117 19.4492C83.8945 20.293 84.5898 21.1484 85.0977 22.0156C85.6055 22.875 85.8594 23.8086 85.8594 24.8164C85.8594 26.2305 85.4492 27.3203 84.6289 28.0859C83.8164 28.8516 82.7383 29.2344 81.3945 29.2344ZM88.2734 29V9.57031H95.293V10.9766H90.1133V18.2539H94.3555V19.6133H90.1133V27.6289H95.3516V29H88.2734Z" fill="#494949"/>
<path d="M14.5039 29.3516C13.5117 29.3516 12.6602 29.2109 11.9492 28.9297C11.2461 28.6406 10.6914 28.2188 10.2852 27.6641C9.87891 27.1094 9.58203 26.4766 9.39453 25.7656C9.21484 25.0469 9.125 24.2148 9.125 23.2695V22.5781H13.1445V23.2578C13.1523 24.25 13.2539 24.9531 13.4492 25.3672C13.6445 25.7734 14.0117 25.9766 14.5508 25.9766C15.0742 25.9766 15.4219 25.7773 15.5938 25.3789C15.7656 24.9805 15.8516 24.3164 15.8516 23.3867C15.8516 22.3711 15.707 21.6289 15.418 21.1602C15.1367 20.6914 14.6016 20.4453 13.8125 20.4219H13.1094V17.6094H13.7422C14.5547 17.6016 15.1094 17.3828 15.4062 16.9531C15.7031 16.5156 15.8516 15.7969 15.8516 14.7969C15.8516 14.0078 15.7461 13.4258 15.5352 13.0508C15.332 12.6758 14.9727 12.4883 14.457 12.4883C13.9492 12.4883 13.6055 12.6914 13.4258 13.0977C13.2461 13.4961 13.1523 14.0898 13.1445 14.8789V15.875H9.125V14.7031C9.125 12.9688 9.59375 11.6289 10.5312 10.6836C11.4766 9.73828 12.7812 9.26562 14.4453 9.26562C16.1484 9.26562 17.4688 9.71875 18.4062 10.625C19.3438 11.5234 19.8125 12.8281 19.8125 14.5391C19.8125 15.6406 19.5859 16.5781 19.1328 17.3516C18.6875 18.125 18.1172 18.6055 17.4219 18.793C19.0156 19.3711 19.8125 20.8672 19.8125 23.2812C19.8125 24.2031 19.7148 25.0234 19.5195 25.7422C19.332 26.4609 19.0312 27.0977 18.6172 27.6523C18.2109 28.1992 17.6602 28.6211 16.9648 28.918C16.2695 29.207 15.4492 29.3516 14.5039 29.3516ZM22.0625 29V9.57031H26.9492C28.2227 9.57031 29.2773 9.68359 30.1133 9.91016C30.957 10.1367 31.6289 10.5078 32.1289 11.0234C32.6289 11.5391 32.9805 12.1719 33.1836 12.9219C33.3867 13.6641 33.4883 14.5977 33.4883 15.7227V22.7305C33.4883 23.8633 33.3828 24.8125 33.1719 25.5781C32.9688 26.3359 32.6172 26.9805 32.1172 27.5117C31.625 28.0352 30.9609 28.4141 30.125 28.6484C29.2969 28.8828 28.2578 29 27.0078 29H22.0625ZM26.3516 26.0234H27.0078C27.3359 26.0234 27.6133 26.0039 27.8398 25.9648C28.0742 25.918 28.2656 25.8398 28.4141 25.7305C28.5703 25.6211 28.6914 25.5078 28.7773 25.3906C28.8711 25.2656 28.9375 25.0898 28.9766 24.8633C29.0234 24.6289 29.0508 24.4102 29.0586 24.207C29.0742 23.9961 29.082 23.7148 29.082 23.3633V15.0078C29.082 14.5156 29.0625 14.1367 29.0234 13.8711C28.9844 13.6055 28.8945 13.3633 28.7539 13.1445C28.6133 12.9258 28.4023 12.7773 28.1211 12.6992C27.8477 12.6133 27.4727 12.5703 26.9961 12.5703H26.3516V26.0234Z" fill="#494949"/>
</svg>
