<svg width="15" height="15" viewBox="0 0 15 15" fill="none" xmlns="http://www.w3.org/2000/svg">
<path d="M14.9928 11.8358C15.0246 12.0793 14.9504 12.291 14.7705 12.471L12.6586 14.567C12.5633 14.6728 12.4389 14.7629 12.2854 14.8369C12.1319 14.9111 11.9811 14.9587 11.8329 14.9799C11.8223 14.9799 11.7905 14.9826 11.7376 14.9879C11.6847 14.9931 11.6159 14.9958 11.5312 14.9958C11.33 14.9958 11.0045 14.9614 10.5545 14.8926C10.1046 14.8238 9.55416 14.6543 8.90315 14.3844C8.25199 14.1145 7.51362 13.7095 6.68792 13.1697C5.86221 12.6298 4.98352 11.8888 4.05193 10.9466C3.31089 10.2161 2.69688 9.5174 2.20991 8.85049C1.72295 8.18353 1.33125 7.56688 1.03484 7.00051C0.738394 6.43414 0.516082 5.92071 0.367874 5.4602C0.219666 4.9997 0.119096 4.60271 0.0661643 4.26925C0.0132329 3.93578 -0.00793972 3.67377 0.00264657 3.48321C0.0132329 3.29266 0.018526 3.1868 0.018526 3.16562C0.0396986 3.01742 0.0873369 2.86656 0.161441 2.71306C0.235545 2.55956 0.325529 2.43517 0.431391 2.33989L2.54336 0.227927C2.69157 0.0797193 2.86095 0.00561523 3.0515 0.00561523C3.18912 0.00561523 3.31086 0.0453138 3.41673 0.124711C3.52259 0.204108 3.61257 0.302031 3.68668 0.418481L5.38578 3.64201C5.48105 3.81139 5.50752 3.99665 5.46517 4.19779C5.42283 4.39893 5.33285 4.56831 5.19522 4.70593L4.41713 5.48402C4.39596 5.5052 4.37743 5.5396 4.36155 5.58724C4.34567 5.63488 4.33773 5.67458 4.33773 5.70633C4.38008 5.92865 4.47536 6.18272 4.62356 6.46855C4.7506 6.72262 4.94645 7.03227 5.2111 7.3975C5.47576 7.76272 5.85157 8.1835 6.33854 8.65988C6.81493 9.14691 7.23838 9.52531 7.6089 9.79532C7.97934 10.0652 8.28909 10.2637 8.53787 10.3908C8.78665 10.5178 8.9772 10.5946 9.10951 10.6209L9.30795 10.6607C9.32912 10.6607 9.3636 10.6527 9.41119 10.6369C9.45883 10.6209 9.49323 10.6024 9.51443 10.5812L10.4195 9.66024C10.6102 9.49088 10.8324 9.40619 11.0865 9.40619C11.2665 9.40619 11.4094 9.43793 11.5152 9.50147H11.5311L14.5958 11.3117C14.8182 11.4495 14.9505 11.6241 14.9928 11.8358Z" fill="#5FCAEA"/>
</svg>
