<svg width="15" height="15" viewBox="0 0 15 15" fill="none" xmlns="http://www.w3.org/2000/svg">
<path fill-rule="evenodd" clip-rule="evenodd" d="M6.62493 10.9999C4.21259 10.9999 2.25 9.03727 2.25 6.62493C2.25 4.21259 4.21259 2.25 6.62493 2.25C9.03727 2.25 10.9999 4.21259 10.9999 6.62493C10.9999 9.03727 9.03727 10.9999 6.62493 10.9999ZM14.2434 13.0062L11.5205 10.3007C11.5187 10.299 11.517 10.299 11.5152 10.2972C12.2869 9.27174 12.7498 8.00301 12.7498 6.6249C12.7498 3.24833 10.0015 0.5 6.6249 0.5C3.24746 0.5 0.5 3.24833 0.5 6.6249C0.5 10.0015 3.24746 12.7498 6.6249 12.7498C8.00301 12.7498 9.27174 12.2869 10.2963 11.5161C10.2981 11.5178 10.2981 11.5196 10.2998 11.5213L13.0062 14.2434C13.1768 14.414 13.4008 14.4998 13.6248 14.4998C13.8488 14.4998 14.0728 14.414 14.2434 14.2434C14.5855 13.9013 14.5855 13.3483 14.2434 13.0062Z" fill="#494949"/>
</svg>
