<svg width="30" height="30" viewBox="0 0 30 30" fill="none" xmlns="http://www.w3.org/2000/svg">
<circle cx="15" cy="15" r="15" fill="#E9F1F5"/>
<path d="M9.42803 12.8067C8.7833 12.8067 8.16498 13.0675 7.70908 13.5317C7.25319 13.9958 6.99707 14.6254 6.99707 15.2819C6.99707 15.9383 7.25319 16.5679 7.70908 17.0321C8.16498 17.4963 8.7833 17.757 9.42803 17.757C9.9582 17.753 10.4725 17.5727 10.8927 17.2434L15.7121 21.0985C15.4645 21.6581 15.4261 22.2905 15.6041 22.8768C15.7821 23.4632 16.1644 23.9632 16.6789 24.2829C17.1935 24.6026 17.805 24.7199 18.3986 24.6129C18.9921 24.5059 19.5269 24.1819 19.9024 23.7017C20.2778 23.2215 20.4682 22.6183 20.4376 22.0053C20.407 21.3924 20.1577 20.8119 19.7364 20.3729C19.3151 19.9339 18.7509 19.6667 18.1497 19.6214C17.5486 19.5761 16.9519 19.7559 16.4718 20.127L11.6524 16.2719C11.7893 15.9594 11.86 15.621 11.86 15.2788C11.86 14.9365 11.7893 14.5982 11.6524 14.2856L16.4718 10.4305C16.8911 10.762 17.4055 10.9446 17.9364 10.9503C18.4601 10.9511 18.9699 10.7798 19.3902 10.4617C19.8105 10.1437 20.1187 9.69597 20.2689 9.18521C20.4191 8.67446 20.4033 8.12797 20.2239 7.62709C20.0445 7.1262 19.711 6.69769 19.2731 6.40532C18.8352 6.11296 18.3163 5.97238 17.7936 6.0045C17.271 6.03662 16.7724 6.23972 16.3722 6.58358C15.9721 6.92744 15.6916 7.39368 15.5727 7.9129C15.4537 8.43213 15.5026 8.97658 15.7121 9.46523L10.8927 13.3203C10.4725 12.9911 9.9582 12.8107 9.42803 12.8067ZM8.21255 15.2819C8.21255 15.0371 8.28384 14.7978 8.4174 14.5943C8.55096 14.3908 8.74079 14.2322 8.96289 14.1385C9.18499 14.0448 9.42938 14.0203 9.66516 14.0681C9.90094 14.1158 10.1175 14.2337 10.2875 14.4068C10.4575 14.5798 10.5733 14.8004 10.6202 15.0404C10.6671 15.2805 10.643 15.5293 10.551 15.7555C10.459 15.9816 10.3032 16.1749 10.1033 16.3109C9.90344 16.4469 9.66843 16.5194 9.42803 16.5194C9.10567 16.5194 8.79651 16.3891 8.56856 16.157C8.34061 15.9249 8.21255 15.6101 8.21255 15.2819ZM19.1519 22.0886C19.1519 22.3333 19.0806 22.5726 18.947 22.7761C18.8135 22.9796 18.6237 23.1383 18.4016 23.2319C18.1795 23.3256 17.9351 23.3501 17.6993 23.3024C17.4635 23.2546 17.2469 23.1367 17.0769 22.9637C16.9069 22.7906 16.7912 22.5701 16.7443 22.33C16.6974 22.0899 16.7215 21.8411 16.8135 21.615C16.9054 21.3888 17.0612 21.1955 17.2611 21.0596C17.461 20.9236 17.696 20.851 17.9364 20.851C18.2588 20.851 18.5679 20.9814 18.7959 21.2135C19.0238 21.4456 19.1519 21.7603 19.1519 22.0886ZM17.9364 7.23758C18.1768 7.23758 18.4118 7.31016 18.6117 7.44615C18.8116 7.58214 18.9674 7.77542 19.0594 8.00156C19.1514 8.2277 19.1754 8.47654 19.1285 8.7166C19.0816 8.95667 18.9659 9.17719 18.7959 9.35027C18.6259 9.52334 18.4093 9.64121 18.1735 9.68897C17.9378 9.73672 17.6934 9.71221 17.4713 9.61854C17.2492 9.52487 17.0593 9.36625 16.9258 9.16273C16.7922 8.95921 16.7209 8.71993 16.7209 8.47516C16.7209 8.14694 16.849 7.83215 17.0769 7.60006C17.3049 7.36797 17.614 7.23758 17.9364 7.23758Z" fill="#7492A2"/>
</svg>
