<svg width="15" height="19" viewBox="0 0 15 19" fill="none" xmlns="http://www.w3.org/2000/svg">
<path d="M3.42803 6.8067C2.7833 6.8067 2.16498 7.06747 1.70908 7.53166C1.25319 7.99584 0.99707 8.62541 0.99707 9.28186C0.99707 9.93832 1.25319 10.5679 1.70908 11.0321C2.16498 11.4963 2.7833 11.757 3.42803 11.757C3.9582 11.753 4.47254 11.5727 4.89269 11.2434L9.71208 15.0985C9.46447 15.6581 9.42607 16.2905 9.60411 16.8768C9.78215 17.4632 10.1644 17.9632 10.6789 18.2829C11.1935 18.6026 11.805 18.7199 12.3986 18.6129C12.9921 18.5059 13.5269 18.1819 13.9024 17.7017C14.2778 17.2215 14.4682 16.6183 14.4376 16.0053C14.407 15.3924 14.1577 14.8119 13.7364 14.3729C13.3151 13.9339 12.7509 13.6667 12.1497 13.6214C11.5486 13.5761 10.9519 13.7559 10.4718 14.127L5.65237 10.2719C5.78929 9.95939 5.86005 9.62099 5.86005 9.27877C5.86005 8.93654 5.78929 8.59815 5.65237 8.28561L10.4718 4.43054C10.8911 4.762 11.4055 4.94455 11.9364 4.95033C12.4601 4.95113 12.9699 4.77976 13.3902 4.46172C13.8105 4.14368 14.1187 3.69597 14.2689 3.18521C14.4191 2.67446 14.4033 2.12797 14.2239 1.62709C14.0445 1.1262 13.711 0.697686 13.2731 0.405324C12.8352 0.112961 12.3163 -0.027622 11.7936 0.0044971C11.271 0.0366162 10.7724 0.23972 10.3722 0.583582C9.97207 0.927444 9.69163 1.39368 9.57268 1.9129C9.45373 2.43213 9.50262 2.97658 9.71208 3.46523L4.89269 7.3203C4.47254 6.99106 3.9582 6.8107 3.42803 6.8067ZM2.21255 9.28186C2.21255 9.03709 2.28384 8.79782 2.4174 8.5943C2.55096 8.39078 2.74079 8.23216 2.96289 8.13849C3.18499 8.04482 3.42938 8.02031 3.66516 8.06806C3.90094 8.11581 4.11752 8.23368 4.28751 8.40676C4.4575 8.57984 4.57326 8.80036 4.62016 9.04042C4.66706 9.28049 4.64299 9.52933 4.55099 9.75547C4.459 9.9816 4.30321 10.1749 4.10332 10.3109C3.90344 10.4469 3.66843 10.5194 3.42803 10.5194C3.10567 10.5194 2.79651 10.3891 2.56856 10.157C2.34061 9.92487 2.21255 9.61009 2.21255 9.28186ZM13.1519 16.0886C13.1519 16.3333 13.0806 16.5726 12.947 16.7761C12.8135 16.9796 12.6237 17.1383 12.4016 17.2319C12.1795 17.3256 11.9351 17.3501 11.6993 17.3024C11.4635 17.2546 11.2469 17.1367 11.0769 16.9637C10.9069 16.7906 10.7912 16.5701 10.7443 16.33C10.6974 16.0899 10.7215 15.8411 10.8135 15.615C10.9054 15.3888 11.0612 15.1955 11.2611 15.0596C11.461 14.9236 11.696 14.851 11.9364 14.851C12.2588 14.851 12.5679 14.9814 12.7959 15.2135C13.0238 15.4456 13.1519 15.7603 13.1519 16.0886ZM11.9364 1.23758C12.1768 1.23758 12.4118 1.31016 12.6117 1.44615C12.8116 1.58214 12.9674 1.77542 13.0594 2.00156C13.1514 2.2277 13.1754 2.47654 13.1285 2.7166C13.0816 2.95667 12.9659 3.17719 12.7959 3.35027C12.6259 3.52334 12.4093 3.64121 12.1735 3.68897C11.9378 3.73672 11.6934 3.71221 11.4713 3.61854C11.2492 3.52487 11.0593 3.36625 10.9258 3.16273C10.7922 2.95921 10.7209 2.71993 10.7209 2.47516C10.7209 2.14694 10.849 1.83215 11.0769 1.60006C11.3049 1.36797 11.614 1.23758 11.9364 1.23758Z" fill="#7492A2"/>
</svg>
