<svg width="121" height="237" viewBox="0 0 121 237" fill="none" xmlns="http://www.w3.org/2000/svg">
<path d="M28.152 138.504C41.976 127.752 53.016 115.656 61.272 102.216C69.72 88.776 73.944 74.952 73.944 60.744C73.944 47.304 68.856 40.584 58.68 40.584C54.072 40.584 50.424 41.928 47.736 44.616C45.24 47.304 43.992 51.048 43.992 55.848C43.992 60.456 45.144 65.736 47.448 71.688L5.112 81.48C1.848 72.072 0.216 63.048 0.216 54.408C0.216 37.512 5.4 24.36 15.768 14.952C26.136 5.35199 40.824 0.551989 59.832 0.551989C79.032 0.551989 93.912 5.63999 104.472 15.816C115.032 25.992 120.312 40.488 120.312 59.304C120.312 76.392 116.088 92.328 107.64 107.112C99.192 121.896 86.904 135.336 70.776 147.432V175.656H28.152V138.504ZM26.712 192.36H72.504V237H26.712V192.36Z" fill="#EBF1F5"/>
</svg>
